<?xml version="1.0" standalone="no"?>
<!DOCTYPE svg PUBLIC "-//W3C//DTD SVG 20010904//EN"
 "http://www.w3.org/TR/2001/REC-SVG-20010904/DTD/svg10.dtd">
<svg version="1.0" xmlns="http://www.w3.org/2000/svg"
 width="512.000000pt" height="512.000000pt" viewBox="0 0 512.000000 512.000000"
 preserveAspectRatio="xMidYMid meet">
<metadata>
Created by potrace 1.14, written by Peter Selinger 2001-2017
</metadata>
<g transform="translate(0.000000,512.000000) scale(0.100000,-0.100000)"
fill="#000000" stroke="none">
<path d="M1660 5101 c-47 -9 -90 -20 -96 -24 -8 -5 -8 -27 1 -84 18 -109 24
-143 32 -178 7 -34 11 -62 12 -89 1 -16 7 -17 49 -12 26 3 56 8 67 10 11 2 39
7 63 11 49 8 57 20 43 57 -9 23 -13 25 -43 19 -18 -4 -48 -7 -67 -7 -29 1 -36
5 -42 29 -6 23 -4 30 14 36 12 5 25 7 30 4 12 -7 17 20 9 51 -7 26 -13 30 -43
30 -29 1 -34 5 -37 28 -3 28 1 31 68 43 67 12 71 15 66 43 -2 15 -5 33 -5 40
-1 15 -15 14 -121 -7z"/>
<path d="M1358 5029 c-10 -6 -18 -7 -18 -4 0 3 -18 -4 -39 -15 -37 -18 -39
-22 -31 -47 75 -234 105 -316 116 -320 12 -4 89 18 124 37 24 13 44 109 36
164 -20 125 -120 224 -188 185z m91 -135 c35 -45 20 -124 -23 -124 -13 0 -58
128 -50 142 11 17 53 7 73 -18z"/>
<path d="M1150 4956 c-45 -17 -44 -24 24 -178 30 -68 61 -140 69 -160 15 -35
18 -37 42 -28 68 26 67 23 31 103 -18 39 -52 118 -76 175 -23 56 -45 102 -49
101 -3 0 -22 -6 -41 -13z"/>
<path d="M2734 4948 c-88 -70 -49 -200 60 -200 145 0 145 210 -1 217 -21 1
-44 -5 -59 -17z"/>
<path d="M970 4858 c-56 -16 -100 -68 -100 -118 0 -61 64 -125 114 -114 12 3
36 8 53 11 57 10 87 -37 38 -59 -18 -8 -29 -8 -36 -1 -8 8 -21 5 -45 -9 -41
-24 -42 -30 -7 -58 33 -25 100 -25 143 1 81 50 71 167 -17 204 -33 14 -91 14
-113 0 -15 -9 -40 7 -40 26 0 25 30 40 54 27 15 -8 27 -7 51 7 40 21 37 48 -9
76 -35 21 -37 21 -86 7z"/>
<path d="M3490 4797 c-58 -11 -89 -39 -70 -62 9 -11 23 -14 51 -10 123 19 123
19 114 -104 l-8 -90 36 -36 c19 -19 43 -35 54 -36 10 -1 42 -2 71 -4 29 -1 58
-8 65 -14 8 -8 11 -42 9 -99 -1 -48 3 -99 9 -114 15 -37 71 -70 118 -71 45 -1
111 36 111 63 0 28 -12 30 -61 13 -78 -28 -122 1 -112 77 8 59 6 124 -5 152
-17 42 -53 60 -129 62 -38 1 -74 6 -81 10 -10 6 -12 31 -8 98 9 150 -33 192
-164 165z"/>
<path d="M745 4728 c-16 -12 -55 -40 -85 -62 -30 -22 -57 -41 -59 -43 -2 -1 8
-18 23 -38 26 -33 28 -34 49 -20 12 8 26 15 32 15 6 0 48 -49 94 -110 46 -60
86 -110 88 -110 13 0 63 43 63 53 0 7 -10 23 -22 37 -13 14 -51 62 -86 108
l-63 82 28 24 28 24 -21 28 c-27 36 -33 37 -69 12z"/>
<path d="M2078 4603 c-10 -2 -18 -12 -19 -21 0 -27 -11 -107 -14 -110 -2 -2
-15 22 -29 53 -27 56 -27 56 -64 49 -20 -4 -39 -8 -40 -10 -2 -1 15 -35 39
-75 47 -78 52 -108 37 -208 -12 -82 -8 -93 31 -80 33 12 39 24 43 82 3 55 14
55 39 -3 12 -29 28 -50 38 -51 20 -2 55 2 59 6 2 2 -16 40 -39 86 -40 80 -41
87 -36 149 4 36 9 82 13 103 6 34 5 37 -17 36 -13 -1 -32 -3 -41 -6z"/>
<path d="M530 4538 c-10 -13 -20 -27 -20 -33 0 -5 21 -33 47 -60 140 -147 136
-141 124 -164 -7 -11 -19 -21 -28 -21 -9 0 -58 42 -110 93 -52 50 -97 93 -101
95 -5 1 -19 -9 -32 -23 l-24 -25 65 -67 c159 -163 159 -163 192 -163 67 0 139
72 131 133 -2 18 -24 54 -56 91 -58 67 -155 166 -163 166 -3 0 -14 -10 -25
-22z"/>
<path d="M1726 4515 c-39 -21 -55 -44 -56 -80 0 -29 41 -167 71 -242 25 -61
105 -67 172 -12 33 27 35 33 32 77 -6 79 -46 208 -76 246 -17 21 -29 26 -67
26 -26 0 -60 -7 -76 -15z m121 -137 c37 -107 38 -124 9 -143 -39 -26 -61 -12
-84 53 -40 111 -40 146 1 161 34 13 51 -2 74 -71z"/>
<path d="M2776 4454 c-162 -39 -312 -164 -390 -325 -25 -52 -48 -113 -52 -136
-6 -41 -9 -44 -101 -98 -52 -30 -98 -55 -104 -55 -5 0 -9 -4 -9 -10 0 -5 -4
-10 -9 -10 -7 0 -215 -118 -301 -171 -8 -5 -94 -54 -190 -110 -304 -177 -335
-195 -487 -284 l-118 -69 -200 -299 c-110 -165 -201 -303 -203 -308 -3 -7 50
-45 103 -73 11 -6 82 -47 158 -90 l137 -80 0 -455 0 -456 356 -205 c196 -113
375 -216 397 -229 23 -13 191 -109 372 -214 182 -104 348 -200 370 -213 l40
-23 465 269 c256 148 472 274 480 279 8 6 60 36 115 68 55 32 112 64 126 73
48 27 250 145 294 170 24 14 47 28 50 32 4 4 8 207 9 452 1 245 4 446 6 448
11 9 132 78 136 78 2 0 33 18 69 40 36 22 67 40 69 40 17 0 126 75 126 87 0 8
-82 137 -182 286 -100 150 -191 286 -203 304 -11 17 -25 33 -30 35 -13 4 -612
349 -668 385 -29 18 -36 27 -28 37 20 24 59 141 67 201 26 194 -26 357 -155
484 -139 137 -328 190 -515 145z"/>
<path d="M1466 4423 c-26 -7 -96 -51 -96 -61 0 -4 35 -82 77 -173 88 -189 71
-177 180 -122 55 27 88 75 77 110 -13 41 -27 60 -53 76 -23 13 -30 26 -35 64
-8 65 -40 101 -91 107 -22 3 -49 2 -59 -1z m79 -112 c0 -13 -10 -30 -22 -38
-20 -14 -23 -13 -38 18 -19 37 -8 51 35 47 19 -2 25 -9 25 -27z m52 -109 c11
-7 17 -26 14 -48 0 -6 -12 -16 -26 -22 -22 -10 -26 -9 -39 16 -15 29 -11 45
14 55 21 8 24 8 37 -1z"/>
<path d="M314 4305 c-36 -15 -59 -40 -78 -86 -25 -59 4 -97 153 -202 30 -22
64 -43 76 -47 49 -19 126 56 128 123 1 42 -23 73 -120 150 -84 67 -117 80
-159 62z m122 -120 c76 -54 89 -74 72 -109 -14 -33 -46 -34 -96 -2 -85 54
-122 112 -90 144 21 21 49 13 114 -33z"/>
<path d="M1078 4180 l-87 -68 57 -78 c31 -44 81 -112 111 -152 l53 -72 62 43
c80 56 116 88 116 102 0 7 -9 20 -20 30 -18 17 -21 16 -68 -19 -59 -43 -74
-44 -92 -11 -12 23 -12 27 8 41 27 18 27 32 3 62 -19 22 -20 22 -50 5 -29 -17
-31 -17 -45 2 -9 11 -16 23 -16 27 0 4 24 26 54 49 l55 43 -17 28 c-9 15 -21
29 -27 31 -5 3 -49 -26 -97 -63z"/>
<path d="M887 4032 c-10 -10 -17 -23 -17 -27 0 -5 21 -31 47 -57 46 -47 46
-48 28 -68 -10 -11 -22 -20 -26 -20 -8 0 -12 3 -71 58 l-35 33 -28 -25 -27
-26 132 -130 c73 -71 136 -130 139 -130 10 0 51 39 51 48 0 3 -23 29 -50 57
l-50 51 24 23 25 23 56 -53 56 -53 26 29 27 28 -135 128 c-74 71 -139 129
-145 129 -6 0 -18 -8 -27 -18z"/>
<path d="M694 3826 c-12 -11 -44 -51 -72 -87 l-51 -66 22 -20 c38 -34 46 -35
69 -9 l23 25 117 -89 117 -88 27 35 c15 19 22 38 17 42 -8 5 -213 160 -222
168 -3 2 5 16 17 32 l21 29 -22 19 c-34 31 -41 32 -63 9z"/>
<path d="M4360 3824 c-6 -14 -10 -31 -10 -38 0 -21 -32 -44 -73 -51 -20 -4
-40 -12 -44 -18 -3 -5 13 -26 36 -46 38 -32 42 -41 40 -76 -4 -76 3 -80 63
-39 37 26 38 26 78 10 60 -24 74 -22 65 12 -4 15 -8 35 -10 45 -2 9 -6 21 -9
25 -2 4 11 28 30 52 19 24 31 47 27 51 -5 4 -30 9 -58 11 -46 3 -51 6 -78 46
-33 49 -44 52 -57 16z"/>
<path d="M286 3338 c-7 -18 -16 -41 -19 -50 -4 -10 -25 -22 -52 -29 -25 -6
-48 -16 -52 -22 -4 -6 12 -27 34 -46 39 -34 41 -39 38 -84 -4 -61 10 -67 64
-32 l40 27 46 -18 c53 -20 74 -10 56 25 -7 12 -9 21 -7 21 3 0 1 11 -4 24 -7
20 -4 31 21 62 40 51 38 64 -13 65 -24 1 -46 1 -51 0 -4 -1 -22 19 -39 44 -18
25 -36 45 -40 45 -5 0 -15 -15 -22 -32z"/>
<path d="M4615 3006 c-27 -20 -7 -45 50 -61 28 -9 60 -21 69 -28 17 -12 17
-16 1 -53 -9 -21 -27 -55 -41 -75 -52 -75 -25 -148 72 -194 30 -14 58 -33 61
-41 3 -9 -13 -51 -36 -95 -23 -44 -41 -93 -41 -110 0 -73 74 -135 152 -126 45
5 63 19 55 41 -4 10 -20 16 -42 17 -44 2 -45 2 -71 17 -34 18 -35 47 -4 104
59 108 65 136 45 185 -9 21 -29 38 -67 57 -96 48 -102 63 -53 131 71 100 65
179 -17 214 -59 25 -113 32 -133 17z"/>
<path d="M182 2467 c-18 -21 3 -40 70 -62 79 -25 84 -43 34 -126 -61 -102 -45
-164 52 -210 72 -34 82 -45 71 -81 -4 -17 -16 -42 -26 -57 -64 -94 -49 -183
37 -225 31 -15 104 -13 124 3 23 19 8 41 -29 41 -53 0 -93 19 -103 48 -8 22
-2 40 29 100 65 123 52 172 -57 224 -34 16 -65 37 -66 47 -2 9 13 49 34 89 47
90 49 132 10 172 -40 40 -158 64 -180 37z"/>
<path d="M4574 1728 c-12 -5 -31 -27 -42 -47 -18 -31 -20 -44 -12 -73 12 -43
45 -74 88 -83 114 -24 176 132 80 199 -25 18 -82 20 -114 4z"/>
<path d="M605 1185 c-24 -25 -35 -45 -35 -66 0 -66 53 -119 121 -119 22 0 41
10 65 34 73 73 25 186 -80 186 -27 0 -43 -8 -71 -35z"/>
<path d="M4073 1099 c-9 -9 -8 -19 3 -41 21 -41 20 -84 -2 -109 -17 -19 -26
-21 -93 -15 -146 11 -191 -23 -191 -145 0 -86 -7 -92 -103 -83 -126 11 -178
-22 -176 -113 0 -42 28 -125 44 -130 18 -5 35 13 35 38 1 13 -2 47 -6 75 -6
48 -5 52 16 59 12 4 55 4 96 0 118 -11 154 21 162 143 4 56 9 75 22 82 10 5
56 8 102 7 91 -2 120 7 150 48 36 48 28 134 -16 178 -20 20 -28 21 -43 6z"/>
<path d="M1380 828 c-44 -22 -76 -60 -65 -78 9 -15 31 -12 67 10 45 27 84 26
103 -3 8 -13 17 -54 20 -92 6 -72 20 -109 52 -137 23 -21 48 -24 129 -14 75 9
83 1 89 -86 7 -128 53 -178 144 -157 77 17 127 52 112 78 -12 18 -41 20 -81 3
-85 -35 -98 -24 -107 91 -8 113 -56 157 -155 141 -84 -13 -94 -10 -107 27 -6
18 -11 55 -11 84 0 112 -96 179 -190 133z"/>
<path d="M2665 282 c-6 -4 -21 -22 -34 -39 -19 -29 -28 -33 -66 -33 -24 0 -46
-4 -49 -9 -3 -5 7 -25 24 -45 28 -36 28 -38 14 -78 -7 -22 -12 -44 -9 -49 3
-4 26 -2 51 6 43 13 47 12 81 -11 20 -13 40 -24 44 -24 5 0 9 22 9 49 0 45 3
52 35 77 20 15 34 32 32 37 -2 6 -20 15 -42 21 -39 11 -46 19 -67 73 -8 19
-17 30 -23 25z"/>
</g>
</svg>
